<svg xmlns="http://www.w3.org/2000/svg" viewBox="0 0 64 64" width="64"  height="64"><g fill="white" class="nc-icon-wrapper"><path d="M55,1H9C6.791,1,5,2.791,5,5v54c0,2.209,1.791,4,4,4h46c2.209,0,4-1.791,4-4V5C59,2.791,57.209,1,55,1z M21,54c0,0.552-0.447,1-1,1h-6c-0.553,0-1-0.448-1-1v-5c0-0.552,0.447-1,1-1h6c0.553,0,1,0.448,1,1V54z M21,42c0,0.552-0.447,1-1,1 h-6c-0.553,0-1-0.448-1-1v-5c0-0.552,0.447-1,1-1h6c0.553,0,1,0.448,1,1V42z M21,30c0,0.552-0.447,1-1,1h-6c-0.553,0-1-0.448-1-1v-5 c0-0.552,0.447-1,1-1h6c0.553,0,1,0.448,1,1V30z M36,54c0,0.552-0.447,1-1,1h-6c-0.553,0-1-0.448-1-1v-5c0-0.552,0.447-1,1-1h6 c0.553,0,1,0.448,1,1V54z M36,42c0,0.552-0.447,1-1,1h-6c-0.553,0-1-0.448-1-1v-5c0-0.552,0.447-1,1-1h6c0.553,0,1,0.448,1,1V42z M36,30c0,0.552-0.447,1-1,1h-6c-0.553,0-1-0.448-1-1v-5c0-0.552,0.447-1,1-1h6c0.553,0,1,0.448,1,1V30z M51,54c0,0.552-0.447,1-1,1 h-6c-0.553,0-1-0.448-1-1V37c0-0.552,0.447-1,1-1h6c0.553,0,1,0.448,1,1V54z M51,30c0,0.552-0.447,1-1,1h-6c-0.553,0-1-0.448-1-1v-5 c0-0.552,0.447-1,1-1h6c0.553,0,1,0.448,1,1V30z M51,18c0,0.552-0.447,1-1,1H14c-0.553,0-1-0.448-1-1v-8c0-0.552,0.447-1,1-1h36 c0.553,0,1,0.448,1,1V18z"/></g></svg>